<?xml version="1.0" encoding="UTF-8" standalone="no"?>
<svg
   xmlns:dc="http://purl.org/dc/elements/1.1/"
   xmlns:cc="http://creativecommons.org/ns#"
   xmlns:rdf="http://www.w3.org/1999/02/22-rdf-syntax-ns#"
   xmlns:svg="http://www.w3.org/2000/svg"
   xmlns="http://www.w3.org/2000/svg"
   xmlns:xlink="http://www.w3.org/1999/xlink"
   id="svg3721"
   version="1.1"
   viewBox="0 0 65.058159 40.035416"
   height="40.035416mm"
   width="65.058159mm">
  <defs
     id="defs3715">
    <linearGradient
       id="linearGradient7080">
      <stop
         id="stop7076"
         offset="0"
         style="stop-color:#800080;stop-opacity:1;" />
      <stop
         id="stop7078"
         offset="1"
         style="stop-color:#ff00ff;stop-opacity:1" />
    </linearGradient>
    <linearGradient
       gradientTransform="matrix(3.4649377,5.3311063e-8,-8.4053002e-8,4.0726357,0,-328.8189)"
       gradientUnits="userSpaceOnUse"
       y2="127.16667"
       x2="123.24581"
       y1="119.2721"
       x1="113.60343"
       id="linearGradient7082"
       xlink:href="#linearGradient7080" />
  </defs>
  <metadata
     id="metadata3718">
    <rdf:RDF>
      <cc:Work
         rdf:about="">
        <dc:format>image/svg+xml</dc:format>
        <dc:type
           rdf:resource="http://purl.org/dc/dcmitype/StillImage" />
        <dc:title></dc:title>
      </cc:Work>
    </rdf:RDF>
  </metadata>
  <g
     transform="translate(-48.115348,-121.5984)"
     id="layer1">
    <g
       id="text7015"
       style="font-style:normal;font-weight:normal;font-size:27.64163971px;line-height:1.25;font-family:sans-serif;letter-spacing:0px;word-spacing:0px;fill:#000000;fill-opacity:1;stroke:none;stroke-width:0.69104087"
       transform="matrix(0.9161336,-0.00471102,0.1481171,1.0907822,0,0)"
       aria-label="Hello World">
      <path
         id="rect7061"
         transform="matrix(0.28860279,0.00124646,-0.03918932,0.24239368,-12.886188,79.703623)"
         d="m 203.74805,132.64258 c -11.18761,0 -20.23896,7.88082 -20.6543,17.80859 h -0.0195 v 0.71094 78.85156 l 106.13867,45.5625 106.14063,-45.5625 v -58.08398 -2.2461 -19.42187 c 0,-9.39284 6.972,-16.96127 15.68554,-17.12305 -1.51206,-0.31322 -3.08178,-0.49609 -4.70312,-0.49609 z"
         style="fill:#ff00ff;stroke-width:0.69104087" />
      <path
         id="rect7072"
         transform="matrix(0.28860279,0.00124646,-0.03918932,0.24239368,-12.886188,79.703623)"
         d="m 411.07227,133.13867 c -8.84582,0 -15.9668,7.64385 -15.9668,17.13867 v 18.16407 h 31.93359 v -18.16407 c 0,-9.49482 -7.12098,-17.13867 -15.96679,-17.13867 z"
         style="fill:url(#linearGradient7082);fill-opacity:1;stroke-width:0.94493926" />
    </g>
  </g>
</svg>
